<svg width="25" height="25" viewBox="0 0 25 25" fill="none" xmlns="http://www.w3.org/2000/svg">
<path d="M22.8332 12.0833C20.7291 7.19791 16.7707 4.16666 12.4999 4.16666C8.22905 4.16666 4.27072 7.19791 2.16655 12.0833C2.1092 12.2147 2.07959 12.3566 2.07959 12.5C2.07959 12.6434 2.1092 12.7852 2.16655 12.9167C4.27072 17.8021 8.22905 20.8333 12.4999 20.8333C16.7707 20.8333 20.7291 17.8021 22.8332 12.9167C22.8906 12.7852 22.9202 12.6434 22.9202 12.5C22.9202 12.3566 22.8906 12.2147 22.8332 12.0833ZM12.4999 18.75C9.1978 18.75 6.0728 16.3646 4.27072 12.5C6.0728 8.63541 9.1978 6.24999 12.4999 6.24999C15.802 6.24999 18.927 8.63541 20.7291 12.5C18.927 16.3646 15.802 18.75 12.4999 18.75ZM12.4999 8.33332C11.6758 8.33332 10.8702 8.57769 10.185 9.03553C9.49981 9.49337 8.96575 10.1441 8.65039 10.9055C8.33502 11.6668 8.25251 12.5046 8.41328 13.3129C8.57405 14.1211 8.97089 14.8635 9.55361 15.4463C10.1363 16.029 10.8788 16.4258 11.687 16.5866C12.4953 16.7474 13.333 16.6649 14.0944 16.3495C14.8558 16.0341 15.5065 15.5001 15.9643 14.8149C16.4222 14.1297 16.6666 13.3241 16.6666 12.5C16.6666 11.3949 16.2276 10.3351 15.4462 9.55371C14.6648 8.77231 13.605 8.33332 12.4999 8.33332ZM12.4999 14.5833C12.0878 14.5833 11.6851 14.4611 11.3424 14.2322C10.9998 14.0033 10.7328 13.6779 10.5751 13.2972C10.4175 12.9166 10.3762 12.4977 10.4566 12.0936C10.537 11.6894 10.7354 11.3182 11.0267 11.0269C11.3181 10.7355 11.6893 10.5371 12.0934 10.4567C12.4976 10.3763 12.9165 10.4176 13.2971 10.5752C13.6778 10.7329 14.0032 10.9999 14.2321 11.3426C14.461 11.6852 14.5832 12.0879 14.5832 12.5C14.5832 13.0525 14.3637 13.5824 13.973 13.9731C13.5823 14.3638 13.0524 14.5833 12.4999 14.5833Z" fill="#A0936B"/>
</svg>
